<svg preserveAspectRatio="none" overflow="visible" style="display: block;" width="21.1473" height="21.1473" viewBox="0 0 21.1473 21.1473" fill="none" xmlns="http://www.w3.org/2000/svg">
<g id="SVG">
<path id="Vector" d="M13.217 7.04896H7.93017C7.44354 7.04896 7.04904 7.44346 7.04904 7.9301V13.2169C7.04904 13.7036 7.44354 14.0981 7.93017 14.0981H13.217C13.7036 14.0981 14.0981 13.7036 14.0981 13.2169V7.9301C14.0981 7.44346 13.7036 7.04896 13.217 7.04896Z" stroke="#998200" stroke-width="1.40982"/>
<path id="Vector_2" d="M7.04904 3.5246V6.16801" stroke="#998200" stroke-width="1.40982" stroke-linecap="round"/>
<path id="Vector_3" d="M10.5735 3.5246V6.16801" stroke="#998200" stroke-width="1.40982" stroke-linecap="round"/>
<path id="Vector_4" d="M14.098 3.5246V6.16801" stroke="#998200" stroke-width="1.40982" stroke-linecap="round"/>
<path id="Vector_5" d="M7.04904 14.9793V17.6227" stroke="#998200" stroke-width="1.40982" stroke-linecap="round"/>
<path id="Vector_6" d="M10.5735 14.9793V17.6227" stroke="#998200" stroke-width="1.40982" stroke-linecap="round"/>
<path id="Vector_7" d="M14.098 14.9793V17.6227" stroke="#998200" stroke-width="1.40982" stroke-linecap="round"/>
<path id="Vector_8" d="M3.52443 7.04896H6.16784" stroke="#998200" stroke-width="1.40982" stroke-linecap="round"/>
<path id="Vector_9" d="M3.52443 10.5736H6.16784" stroke="#998200" stroke-width="1.40982" stroke-linecap="round"/>
<path id="Vector_10" d="M3.52443 14.0982H6.16784" stroke="#998200" stroke-width="1.40982" stroke-linecap="round"/>
<path id="Vector_11" d="M14.9793 7.04896H17.6227" stroke="#998200" stroke-width="1.40982" stroke-linecap="round"/>
<path id="Vector_12" d="M14.9793 10.5736H17.6227" stroke="#998200" stroke-width="1.40982" stroke-linecap="round"/>
<path id="Vector_13" d="M14.9793 14.0982H17.6227" stroke="#998200" stroke-width="1.40982" stroke-linecap="round"/>
</g>
</svg>
