<svg preserveAspectRatio="none" overflow="visible" style="display: block;" width="22.8575" height="22.8575" viewBox="0 0 22.8575 22.8575" fill="none" xmlns="http://www.w3.org/2000/svg">
<g id="SVG">
<path id="Vector" d="M8.57159 10.4762C10.1496 10.4762 11.4288 9.19703 11.4288 7.61905C11.4288 6.04107 10.1496 4.76186 8.57159 4.76186C6.99361 4.76186 5.7144 6.04107 5.7144 7.61905C5.7144 9.19703 6.99361 10.4762 8.57159 10.4762Z" stroke="#241E00" stroke-width="1.52383"/>
<path id="Vector_2" d="M2.85721 19.0478C2.85721 15.7144 5.2382 13.3334 8.57159 13.3334C11.905 13.3334 14.286 15.7144 14.286 19.0478" stroke="#241E00" stroke-width="1.52383" stroke-linecap="round" stroke-linejoin="round"/>
<path id="Vector_3" d="M16.1907 10.762C17.4005 10.762 18.3813 9.78125 18.3813 8.57146C18.3813 7.36168 17.4005 6.38095 16.1907 6.38095C14.981 6.38095 14.0002 7.36168 14.0002 8.57146C14.0002 9.78125 14.981 10.762 16.1907 10.762Z" stroke="#241E00" stroke-width="1.52383"/>
<path id="Vector_4" d="M14.0002 19.0479C14.2859 16.7621 15.8098 14.9526 17.6193 14.2859" stroke="#241E00" stroke-width="1.52383" stroke-linecap="round" stroke-linejoin="round"/>
</g>
</svg>
